<svg width="385" height="377" viewBox="0 0 385 377" fill="none" xmlns="http://www.w3.org/2000/svg">
<path fill-rule="evenodd" clip-rule="evenodd" d="M278.751 94.5292C276.4 93.6412 274.161 92.3433 272.118 90.5412C256.695 76.9378 263.309 56.414 272.642 45.7288C281.976 35.0437 339.073 39.3058 312.138 88.8056C312.025 88.8764 311.909 88.9477 311.791 89.0193C308.78 98.94 311.319 107.449 314.367 117.659C315.609 121.823 316.937 126.27 318.006 131.211L289.439 129.092C281.588 118.054 278.611 106.926 278.751 94.5292Z" fill="#F5B9AB"/>
<path d="M317.263 58.9134C321.733 65.3523 316.918 81.2552 313.366 85.2328C342.802 68.3228 324.166 30.1699 315.084 37.1273C313.604 23.0217 297.97 18.0449 287.313 29.9745C260.594 7.6348 259.188 45.701 268.619 51.49C278.05 57.279 289.492 51.7661 295.43 54.7513C301.368 57.7365 305.032 75.819 306.956 65.7829C308.879 55.7468 311.675 50.8648 317.263 58.9134Z" fill="#00ADB5"/>
<path d="M343.681 339.795L302.247 336.682L312.219 221.212C312.219 221.212 264.145 103.268 305.413 103.267C363.722 103.267 383.22 196.277 382.493 221.212C381.766 246.147 343.681 339.795 343.681 339.795Z" fill="#EEEEEE"/>
<path d="M301.857 342.365L302.513 336.463L344.239 338.199L343.242 347.285C341.798 360.436 328.638 368.83 316.077 364.612C306.704 361.465 300.767 352.177 301.857 342.365Z" fill="#F5B9AB"/>
<path d="M241.791 256.7C214.838 229.644 248.333 140.024 253.795 129.359C261.749 114.16 285.621 87.7195 317.483 103.548C365.663 127.484 343.646 245.916 334.986 286.969L241.791 256.7Z" fill="#EEEEEE"/>
<path d="M326 274L212 264C212 264 154.28 274.907 118.5 284C82.7545 293.084 28 310.5 28 310.5L32.5 351L208 357C208 357 286.5 382 316.5 349.5C346.5 317 326 274 326 274Z" fill="#00ADB5"/>
<path fill-rule="evenodd" clip-rule="evenodd" d="M154.105 279.407L136.188 337.1L98.5962 335.199L81.4407 227.552C78.5827 209.619 91.9097 193.53 109.623 193.53L132.601 193.53L134.208 190.93L142.164 193.58C147.422 193.886 152.247 195.595 156.35 198.305L316.156 251.526C340.857 259.752 351.793 289.277 338.819 312.716L315.792 354.318C302.854 377.692 272.567 383.384 252.915 366.136L154.105 279.407Z" fill="#00ADB5"/>
<path d="M98.1637 334.76L136.603 337.113L139.584 370.523C139.584 370.523 105.861 369.511 85.4047 362.886L99.1546 355.89L98.1637 334.76Z" fill="#EEEEEE"/>
<rect width="97.2116" height="17.6874" rx="2.00878" transform="matrix(0.250552 0.968103 0.963608 -0.267319 85.2083 91.217)" fill="#EEEEEE"/>
<rect width="94.1065" height="18.2683" rx="2.00878" transform="matrix(-1 0 0 1 199.934 175.8)" fill="#00ADB5"/>
<path d="M27.8667 310.005L32.6212 350.645L3.92785 358.844C3.92785 358.844 -1.47817 323.829 1.1415 301.462L10.6176 314.352L27.8667 310.005Z" fill="#EEEEEE"/>
<path d="M170.357 204.895L191.89 167.749L257.911 204.969C254.884 162.013 283.362 100.194 313.266 103.959C365.727 110.565 327.078 244.443 292.711 268.041C258.345 291.639 170.357 204.895 170.357 204.895Z" fill="#EEEEEE"/>
<path d="M188.148 165.062L192.093 167.983L170.399 204.925L163.951 200.167C153.125 192.177 151.996 176.035 161.614 166.739C168.875 159.72 179.982 159.018 188.148 165.062Z" fill="#F5B9AB"/>
</svg>
