<svg width="96" height="96" viewBox="0 0 96 96" fill="none" xmlns="http://www.w3.org/2000/svg">
<path d="M80.9999 38.1V74.4C80.9999 76.1504 80.3046 77.8292 79.0668 79.0669C77.8291 80.3046 76.1504 81 74.4 81H21.6C19.8496 81 18.1709 80.3046 16.9331 79.0669C15.6954 77.8292 15.0001 76.1504 15.0001 74.4V38.1H80.9999ZM80.0429 32.457L64.5 16.914C63.2625 15.6867 61.5899 14.9986 59.847 15H36.153C34.4101 14.9986 32.7375 15.6867 31.5 16.914L15.9571 32.457C15.6512 32.7654 15.4092 33.131 15.245 33.5331C15.0808 33.9352 14.9975 34.3657 15.0001 34.8H80.9999C81.0024 34.3657 80.9192 33.9352 80.755 33.5331C80.5908 33.131 80.3488 32.7654 80.0429 32.457Z" fill="#323847"/>
<path d="M51 15V51.6667C51 52.5507 50.6839 53.3986 50.1213 54.0237C49.5587 54.6488 48.7956 55 48 55C47.2044 55 46.4413 54.6488 45.8787 54.0237C45.3161 53.3986 45 52.5507 45 51.6667V15H51Z" fill="#69C647"/>
</svg>
