<svg width="96" height="96" viewBox="0 0 96 96" fill="none" xmlns="http://www.w3.org/2000/svg">
<path d="M73 34H62.5C61.5717 34 60.6815 34.3763 60.0251 35.046C59.3687 35.7158 59 36.6242 59 37.5714V80.4286C59 81.3758 59.3687 82.2842 60.0251 82.954C60.6815 83.6237 61.5717 84 62.5 84H76.5C77.4283 84 78.3185 83.6237 78.9749 82.954C79.6313 82.2842 80 81.3758 80 80.4286V41.1429C80 39.2485 79.2625 37.4316 77.9497 36.0921C76.637 34.7526 74.8565 34 73 34Z" fill="#69C647"/>
<path d="M80.4 76.8001H66V15.601C65.9974 15.0299 65.8589 14.4676 65.596 13.9606C65.333 13.4535 64.9533 13.0163 64.488 12.6851C64.0264 12.3505 63.492 12.1304 62.9287 12.0428C62.3654 11.9552 61.7894 12.0026 61.248 12.1811L20.532 25.7529C19.0952 26.2297 17.8453 27.1473 16.9599 28.3752C16.0745 29.6032 15.5986 31.0789 15.6 32.5928V76.8001C14.6452 76.8001 13.7295 77.1794 13.0544 77.8545C12.3793 78.5296 12 79.4453 12 80.4001C12 81.3548 12.3793 82.2705 13.0544 82.9456C13.7295 83.6207 14.6452 84 15.6 84H80.4C81.3548 84 82.2705 83.6207 82.9456 82.9456C83.6207 82.2705 84 81.3548 84 80.4001C84 79.4453 83.6207 78.5296 82.9456 77.8545C82.2705 77.1794 81.3548 76.8001 80.4 76.8001Z" fill="#323847"/>
<path d="M48.3333 55H33.6667C32.6942 55 31.7616 55.3863 31.0739 56.0739C30.3863 56.7616 30 57.6942 30 58.6667V77H52V58.6667C52 57.6942 51.6137 56.7616 50.9261 56.0739C50.2384 55.3863 49.3058 55 48.3333 55Z" fill="#69C647"/>
</svg>
