<svg width="96" height="96" viewBox="0 0 96 96" fill="none" xmlns="http://www.w3.org/2000/svg">
<path d="M81.92 39.36L79.2 38.68L76.68 29.76C76.1953 28.0983 75.1848 26.6386 73.8 25.6C72.4152 24.5614 70.731 24 69 24H56C56 21.8783 55.1571 19.8434 53.6569 18.3431C52.1566 16.8429 50.1217 16 48 16H16C13.8783 16 11.8434 16.8429 10.3431 18.3431C8.84285 19.8434 8 21.8783 8 24V64C8 66.1217 8.84285 68.1566 10.3431 69.6569C11.8434 71.1571 13.8783 72 16 72H80C82.1217 72 84.1566 71.1571 85.6569 69.6569C87.1571 68.1566 88 66.1217 88 64V47.12C87.9986 45.3334 87.3992 43.5986 86.2973 42.1922C85.1954 40.7858 83.6544 39.7888 81.92 39.36Z" fill="#323847"/>
<path d="M40 68C40 70.3734 39.2962 72.6935 37.9776 74.6668C36.6591 76.6402 34.7849 78.1783 32.5922 79.0866C30.3995 79.9948 27.9867 80.2324 25.6589 79.7694C23.3311 79.3064 21.193 78.1635 19.5147 76.4853C17.8365 74.8071 16.6936 72.6689 16.2306 70.3411C15.7676 68.0133 16.0052 65.6005 16.9135 63.4078C17.8217 61.2151 19.3598 59.3409 21.3332 58.0224C23.3066 56.7038 25.6266 56 28 56C31.1826 56 34.2348 57.2643 36.4853 59.5147C38.7357 61.7652 40 64.8174 40 68ZM68 56C65.6266 56 63.3065 56.7038 61.3332 58.0224C59.3598 59.3409 57.8217 61.2151 56.9134 63.4078C56.0052 65.6005 55.7676 68.0133 56.2306 70.3411C56.6936 72.6689 57.8365 74.8071 59.5147 76.4853C61.193 78.1635 63.3311 79.3064 65.6589 79.7694C67.9867 80.2324 70.3995 79.9948 72.5922 79.0866C74.7849 78.1783 76.6591 76.6402 77.9776 74.6668C79.2962 72.6935 80 70.3734 80 68C80 64.8174 78.7357 61.7652 76.4853 59.5147C74.2349 57.2643 71.1826 56 68 56ZM44 28H20C18.9391 28 17.9217 28.4214 17.1716 29.1716C16.4214 29.9217 16 30.9391 16 32C16 33.0609 16.4214 34.0783 17.1716 34.8284C17.9217 35.5786 18.9391 36 20 36H44C45.0609 36 46.0783 35.5786 46.8284 34.8284C47.5786 34.0783 48 33.0609 48 32C48 30.9391 47.5786 29.9217 46.8284 29.1716C46.0783 28.4214 45.0609 28 44 28Z" fill="#69C647"/>
</svg>
