<svg width="96" height="96" viewBox="0 0 96 96" fill="none" xmlns="http://www.w3.org/2000/svg">
<path d="M51.5 41C51.505 36.0409 53.2649 31.2436 56.4678 27.4577C59.6708 23.6718 64.1103 21.1415 69 20.315V20C69 18.1435 68.2625 16.363 66.9497 15.0503C65.637 13.7375 63.8565 13 62 13H20C18.1435 13 16.363 13.7375 15.0503 15.0503C13.7375 16.363 13 18.1435 13 20V76C13 77.8565 13.7375 79.637 15.0503 80.9497C16.363 82.2625 18.1435 83 20 83H62C63.8565 83 65.637 82.2625 66.9497 80.9497C68.2625 79.637 69 77.8565 69 76V61.685C64.1103 60.8585 59.6708 58.3282 56.4678 54.5423C53.2649 50.7564 51.505 45.9591 51.5 41Z" fill="#323847"/>
<path d="M45 51.5C45 50.5717 44.6313 49.6815 43.9749 49.0251C43.3185 48.3687 42.4283 48 41.5 48H27.5C26.5717 48 25.6815 48.3687 25.0251 49.0251C24.3687 49.6815 24 50.5717 24 51.5C24 52.4283 24.3687 53.3185 25.0251 53.9749C25.6815 54.6313 26.5717 55 27.5 55H41.5C42.4283 55 43.3185 54.6313 43.9749 53.9749C44.6313 53.3185 45 52.4283 45 51.5ZM52 65.5C52 64.5717 51.6313 63.6815 50.9749 63.0251C50.3185 62.3687 49.4283 62 48.5 62H27.5C26.5717 62 25.6815 62.3687 25.0251 63.0251C24.3687 63.6815 24 64.5717 24 65.5C24 66.4283 24.3687 67.3185 25.0251 67.9749C25.6815 68.6313 26.5717 69 27.5 69H48.5C49.4283 69 50.3185 68.6313 50.9749 67.9749C51.6313 67.3185 52 66.4283 52 65.5Z" fill="#69C647"/>
<path d="M66.112 28.8424L67.9782 27.7928C69.8575 26.7357 72.1425 26.7357 74.0218 27.7928L81.7996 32.1675C82.0834 32.3271 82.3517 32.5073 82.6031 32.7057L77.2606 35.906L66.112 28.8424Z" fill="#69C647"/>
<path d="M64.0561 29.9988L60.2004 32.1675C59.8107 32.3867 59.4502 32.6448 59.1225 32.9353C59.1242 32.9363 59.1258 32.9372 59.1275 32.9382L68.4205 38.2307C70.0036 39.1323 71.9428 39.1048 73.5003 38.1586L73.5064 38.1549L74.9997 37.2604L64.5478 30.6382C64.305 30.4843 64.1374 30.2549 64.0561 29.9988Z" fill="#69C647"/>
<path d="M57.7001 34.7713C57.2478 35.6531 57 36.6455 57 37.6744V44.4351C57 46.7229 58.2251 48.8309 60.2004 49.942L67.9782 54.3167C68.5687 54.6488 69.1992 54.8766 69.8446 55C69.8372 54.9462 69.8333 54.8913 69.8333 54.8354V41.1723C68.9484 41.0418 68.081 40.7478 67.2766 40.2897L57.9836 34.9972C57.8752 34.9355 57.7804 34.8588 57.7001 34.7713Z" fill="#69C647"/>
<path d="M72.1667 41.1396V54.8354C72.1667 54.8913 72.1628 54.9462 72.1554 55C72.8008 54.8766 73.4313 54.6488 74.0218 54.3167L81.7996 49.942C83.7749 48.8309 85 46.7229 85 44.4351V37.6744C85 36.5423 84.7 35.4542 84.1576 34.5091C84.12 34.5384 84.0803 34.5657 84.0385 34.5907L74.7008 40.1843L74.6975 40.1863C73.9061 40.6665 73.0474 40.9845 72.1667 41.1396Z" fill="#69C647"/>
</svg>
