<svg width="96" height="96" viewBox="0 0 96 96" fill="none" xmlns="http://www.w3.org/2000/svg">
<path d="M74.9849 34.644L53.985 13.0441C53.6579 12.7104 53.2701 12.4464 52.8436 12.2673C52.4172 12.0881 51.9606 11.9973 51.5 12.0001H27C25.1435 12.0001 23.363 12.7586 22.0503 14.1089C20.7375 15.4591 20 17.2905 20 19.2001V76.8C20 78.7096 20.7375 80.5409 22.0503 81.8912C23.363 83.2414 25.1435 84 27 84H68.9999C70.8565 84 72.6369 83.2414 73.9497 81.8912C75.2624 80.5409 75.9999 78.7096 75.9999 76.8V37.2C76.0026 36.7263 75.9143 36.2566 75.7401 35.818C75.566 35.3794 75.3093 34.9804 74.9849 34.644Z" fill="#323847"/>
<path d="M75.9754 37.7616L52.0001 34.123C51.5439 34.0606 51.1041 33.9031 50.7064 33.6598C50.3088 33.4165 49.9613 33.0923 49.6842 32.706C49.4072 32.3198 49.2062 31.8793 49.0929 31.4103C48.9797 30.9414 48.9565 30.4534 49.0248 29.9749L52.4844 12C53.1639 12.1312 53.7905 12.4734 54.2834 12.9824L75.0413 34.8143C75.3942 35.2026 75.661 35.6683 75.8225 36.1778C75.984 36.6874 76.0362 37.2283 75.9754 37.7616ZM65.5965 66.3614C65.5965 65.3963 65.232 64.4708 64.5832 63.7884C63.9343 63.1061 63.0544 62.7227 62.1368 62.7227H34.4596C33.5421 62.7227 32.6621 63.1061 32.0133 63.7884C31.3645 64.4708 31 65.3963 31 66.3614C31 67.3264 31.3645 68.2519 32.0133 68.9343C32.6621 69.6166 33.5421 70 34.4596 70H62.1368C63.0544 70 63.9343 69.6166 64.5832 68.9343C65.232 68.2519 65.5965 67.3264 65.5965 66.3614ZM65.5965 51.8068C65.5965 50.8417 65.232 49.9162 64.5832 49.2339C63.9343 48.5515 63.0544 48.1681 62.1368 48.1681H34.4596C33.5421 48.1681 32.6621 48.5515 32.0133 49.2339C31.3645 49.9162 31 50.8417 31 51.8068C31 52.7718 31.3645 53.6973 32.0133 54.3797C32.6621 55.0621 33.5421 55.4454 34.4596 55.4454H62.1368C63.0544 55.4454 63.9343 55.0621 64.5832 54.3797C65.232 53.6973 65.5965 52.7718 65.5965 51.8068Z" fill="#69C647"/>
</svg>
