<svg width="96" height="96" viewBox="0 0 96 96" fill="none" xmlns="http://www.w3.org/2000/svg">
<path d="M30.2652 16.1021L28.4404 17.1059L43.4735 26.4205L50.3099 22.4156C50.1803 22.3353 50.0482 22.2581 49.9137 22.1841L38.8567 16.1021C36.1852 14.6326 32.9368 14.6326 30.2652 16.1021Z" fill="#323847"/>
<path d="M19.2083 22.1841L23.9554 19.5729C24.1438 20.0451 24.4808 20.464 24.9488 20.754L38.6523 29.2448L37.7021 29.8014L37.689 29.8092C35.7303 30.9728 33.2917 31.0067 31.3008 29.8978L18.3795 22.7013C18.6441 22.5152 18.9206 22.3424 19.2083 22.1841Z" fill="#323847"/>
<path d="M15.2901 26.5899C14.8792 27.6074 14.6585 28.7079 14.6585 29.84V39.2391C14.6585 41.4835 15.5257 43.6034 17.0229 45.1997L27.0818 41.5666C28.1613 41.1767 29.3509 41.1767 30.4304 41.5666L32.0732 42.1599V35.3902C30.9629 35.1578 29.8794 34.7585 28.8614 34.1915L15.6505 26.8337C15.5212 26.7617 15.4009 26.6799 15.2901 26.5899Z" fill="#323847"/>
<path d="M47.8067 50.5853C47.6314 48.8555 46.4499 47.3525 44.7352 46.7332L37.0488 43.957V35.3264C38.1577 35.0645 39.2353 34.6347 40.2419 34.0377L40.2489 34.0335L53.5191 26.2596C53.5647 26.233 53.609 26.2051 53.6522 26.176C54.1781 27.3062 54.4634 28.5526 54.4634 29.84V39.2391C54.4634 42.0825 53.0716 44.726 50.7702 46.3582C50.9555 46.6191 51.1953 46.8484 51.4854 47.0281L65.1889 55.5189L64.2387 56.0756L64.2255 56.0833C62.2669 57.247 59.8283 57.2808 57.8374 56.172L47.8067 50.5853Z" fill="#323847"/>
<path d="M44.5605 72.3883C46.5078 69.8099 47.8293 66.9469 47.8293 63.9247V56.2502L55.398 60.4657C56.4159 61.0326 57.4995 61.432 58.6098 61.6643V79.9723L58.6099 80C57.9879 79.8195 57.3813 79.5699 56.8018 79.2512L45.7449 73.1692C45.3256 72.9385 44.93 72.677 44.5605 72.3883Z" fill="#323847"/>
<path d="M54.977 43.38L56.8018 42.3763C59.4733 40.9068 62.7218 40.9068 65.3933 42.3763L76.4502 48.4583C76.5848 48.5323 76.7169 48.6095 76.8465 48.6897L70.01 52.6946L54.977 43.38Z" fill="#323847"/>
<path d="M63.5854 61.6005V79.9723L63.5852 80C64.2072 79.8195 64.8138 79.5699 65.3933 79.2512L76.4502 73.1692C79.2584 71.6245 81 68.6939 81 65.5133V56.1142C81 54.8268 80.7147 53.5803 80.1888 52.4502C80.1456 52.4792 80.1012 52.5071 80.0557 52.5338L66.7855 60.3077L66.7785 60.3118C65.7719 60.9089 64.6943 61.3386 63.5854 61.6005Z" fill="#323847"/>
<path fill-rule="evenodd" clip-rule="evenodd" d="M27.373 45.6157L15.5559 49.7887C14.0185 50.3317 13 51.7154 13 53.2616L13 63.6742C13 70.2742 22.8531 76.8743 26.9758 79.347C28.0787 80.0085 29.453 80.0393 30.582 79.4182C34.7313 77.1358 44.5122 70.9806 44.5122 63.6742V53.2617C44.5122 51.7154 43.4937 50.3316 41.9563 49.7887L30.1392 45.6157C29.2474 45.3008 28.2648 45.3008 27.373 45.6157Z" fill="#323847"/>
<path d="M34.253 59L28.5962 64.6569C27.8151 65.4379 26.5488 65.4379 25.7678 64.6569L24 62.8891" stroke="#69C647" stroke-width="3" stroke-linecap="round"/>
</svg>
