<svg width="96" height="96" viewBox="0 0 96 96" fill="none" xmlns="http://www.w3.org/2000/svg">
<path d="M84.8897 80.2841L81.2206 66.9161C83.6692 62.8604 84.9407 58.1893 84.8897 53.4367C84.7858 48.8043 83.5103 44.2762 81.1851 40.2847C78.8598 36.2932 75.5624 32.9715 71.6076 30.6369C71.0009 30.2218 70.2853 30 69.5529 30C68.8206 30 68.105 30.2218 67.4982 30.6369C66.9423 31.0587 66.5161 31.6316 66.2692 32.289C66.0224 32.9464 65.9651 33.6611 66.104 34.3502C66.4309 35.7361 66.5789 37.159 66.5443 38.5834C66.5443 49.7234 55.8305 59.0067 42.6952 59.0067C38.9041 58.9852 35.1577 58.1763 31.688 56.6302C31.22 56.4204 30.7138 56.312 30.202 56.312C29.6902 56.312 29.184 56.4204 28.716 56.6302L26.1843 57.6328C25.3253 58.0175 24.6448 58.721 24.283 59.5984C23.9212 60.4757 23.9057 61.4601 24.2397 62.3487C26.6934 68.119 30.8039 73.0099 36.038 76.3868C41.272 79.7637 47.3879 81.4708 53.5924 81.2867C58.0189 81.3252 62.4129 80.519 66.5443 78.9101L79.9731 84.7029C80.3685 84.8753 80.7908 84.9758 81.2206 85C82.1125 84.9987 82.9733 84.6687 83.6422 84.0717C84.185 83.6261 84.5907 83.033 84.8117 82.362C85.0327 81.691 85.0598 80.9701 84.8897 80.2841Z" fill="#69C647"/>
<path d="M73.3329 33.125C70.3682 20.3663 57.3976 11 42.5 11C25.1194 11 11 23.39 11 38.6562C11.0152 43.3974 12.377 48.0376 14.9282 52.0419L11.2224 65.3169C11.0483 65.9738 11.06 66.6658 11.2562 67.3165C11.4524 67.9672 11.8254 68.5513 12.3341 69.0044C12.9797 69.6076 13.8211 69.9608 14.7059 70C15.2026 69.9991 15.6942 69.8987 16.1512 69.705L29.7147 63.9525C33.7946 65.5141 38.1287 66.3141 42.5 66.3125C59.8806 66.3125 74 53.9225 74 38.6562C74.0025 36.7925 73.7785 34.9353 73.3329 33.125Z" fill="#323847"/>
</svg>
