<svg width="96" height="96" viewBox="0 0 96 96" fill="none" xmlns="http://www.w3.org/2000/svg">
<path d="M59.7807 81H47.7131C46.7283 81 45.7839 80.6207 45.0875 79.9456C44.3912 79.2705 44 78.3548 44 77.4C44 76.4452 44.3912 75.5295 45.0875 74.8544C45.7839 74.1793 46.7283 73.8 47.7131 73.8H59.7807C61.3031 73.8 62.5655 72.144 62.5655 70.2V66.6C62.5655 65.6452 62.9567 64.7295 63.6531 64.0544C64.3494 63.3793 65.2939 63 66.2786 63C67.2634 63 68.2079 63.3793 68.9042 64.0544C69.6005 64.7295 69.9917 65.6452 69.9917 66.6V70.2C70.1027 72.9419 69.0919 75.6153 67.1794 77.6381C65.267 79.6608 62.6077 80.8692 59.7807 81Z" fill="#69C647"/>
<path d="M73.1053 22.1046C68.3116 16.8389 61.984 13.2122 55.0166 11.737C48.0492 10.2619 40.7943 11.0129 34.277 13.8838C27.7597 16.7548 22.3096 21.6006 18.6966 27.7366C15.0837 33.8725 13.4907 40.9884 14.1427 48.0786L14.806 55.4472C14.8546 59.33 16.4341 63.0368 19.2012 65.7619C21.9683 68.4869 25.6994 70.01 29.5835 70H33.2687C35.2234 70 37.0981 69.2236 38.4803 67.8418C39.8625 66.4599 40.639 64.5857 40.639 62.6314V44.2102C40.639 42.2559 39.8625 40.3817 38.4803 38.9999C37.0981 37.618 35.2234 36.8417 33.2687 36.8417H29.5835C26.9845 36.8798 24.4418 37.6043 22.2132 38.9417C23.5801 33.1202 26.869 27.929 31.5493 24.2057C36.2296 20.4824 42.0282 18.4444 48.0093 18.4204C53.9905 18.4444 59.7891 20.4824 64.4694 24.2057C69.1497 27.929 72.4386 33.1202 73.8055 38.9417C71.5769 37.6043 69.0342 36.8798 66.4352 36.8417H62.75C60.7953 36.8417 58.9206 37.618 57.5384 38.9999C56.1562 40.3817 55.3797 42.2559 55.3797 44.2102V62.6314C55.3797 64.5857 56.1562 66.4599 57.5384 67.8418C58.9206 69.2236 60.7953 70 62.75 70H66.4352C70.2692 70.0017 73.953 68.5099 76.7051 65.841C79.4571 63.1722 81.0608 59.5364 81.1758 55.705L81.8391 48.3365C82.3019 43.5964 81.7636 38.812 80.259 34.2932C78.7545 29.7743 76.3173 25.6218 73.1053 22.1046Z" fill="#323847"/>
</svg>
