<svg width="279" height="375" viewBox="0 0 279 375" fill="none" xmlns="http://www.w3.org/2000/svg">
<path d="M35.0966 326.096V334.663H109.192V326.096H35.0966Z" fill="#A15842"/>
<path d="M121.4 370.556L103.045 260.421H114.269C115.472 260.421 116.625 259.943 117.476 259.093C118.326 258.242 118.804 257.089 118.804 255.886C118.804 254.683 118.326 253.529 117.476 252.679C116.625 251.828 115.472 251.35 114.269 251.35H30.1087C28.9058 251.35 27.7522 251.828 26.9017 252.679C26.0511 253.529 25.5733 254.683 25.5733 255.886C25.5733 257.089 26.0511 258.242 26.9017 259.093C27.7522 259.943 28.9058 260.421 30.1087 260.421H41.2444L22.8895 370.556C22.7988 371.101 22.828 371.66 22.975 372.193C23.122 372.725 23.3833 373.22 23.7406 373.641C24.098 374.063 24.5428 374.402 25.0444 374.634C25.5459 374.867 26.092 374.987 26.6447 374.987C27.5136 374.988 28.3565 374.691 29.0331 374.146C29.7098 373.601 30.1793 372.841 30.3635 371.991L54.6842 260.421H89.6049L113.92 371.991C114.106 372.841 114.577 373.601 115.255 374.145C115.932 374.69 116.775 374.987 117.644 374.987C118.197 374.987 118.743 374.867 119.245 374.634C119.746 374.402 120.191 374.063 120.548 373.641C120.906 373.22 121.167 372.725 121.314 372.193C121.461 371.66 121.49 371.101 121.4 370.556Z" fill="#FFBE21"/>
<path d="M114.269 260.421C115.472 260.421 116.625 259.943 117.476 259.093C118.326 258.242 118.804 257.089 118.804 255.886C118.804 254.683 118.326 253.529 117.476 252.679C116.625 251.828 115.472 251.35 114.269 251.35H30.1087C28.9059 251.35 27.7522 251.828 26.9017 252.679C26.0511 253.529 25.5733 254.683 25.5733 255.886C25.5733 257.089 26.0511 258.242 26.9017 259.093C27.7522 259.943 28.9059 260.421 30.1087 260.421H41.2444V260.562H54.6738L54.7051 260.421H89.6257L89.6569 260.562H103.086V260.421H114.269Z" fill="#A15842"/>
<path d="M119.257 325.951H172.829C173.495 314.576 175.871 299.487 177.843 279.104C179.595 261.03 181.104 245.858 181.005 233.334C180.839 212.456 127.433 237.723 127.433 237.723C127.433 242.285 128.354 246.664 128.38 250.908C128.442 261.935 122.856 271.318 118.867 284.617C112.818 304.782 117.858 325.951 117.858 325.951H119.257Z" fill="#4856DF"/>
<path d="M175.684 369.297H128.785C128.134 369.505 127.579 369.938 127.219 370.519C126.859 371.099 126.719 371.79 126.823 372.465C126.927 373.14 127.269 373.756 127.787 374.201C128.305 374.647 128.965 374.892 129.649 374.894L198.663 374.987C199.271 368.278 195.459 363.228 184.703 355.743C178.566 361.064 175.684 369.297 175.684 369.297Z" fill="#3EC1F3"/>
<path d="M182.285 354.115C180.057 352.675 178.133 350.813 176.62 348.633C172.98 343.291 172.21 336.098 172.808 325.951H126.382C126.472 333.538 127.019 341.112 128.021 348.633C129.207 357.147 130.809 363.004 132.093 369.162H129.654C129.359 369.162 129.066 369.207 128.785 369.297H175.684C175.684 369.297 178.566 361.064 184.703 355.774C183.933 355.23 183.127 354.677 182.285 354.115Z" fill="#A15842"/>
<path d="M173.37 316.838C170.498 311.123 168.541 304.993 167.57 298.671C164.174 275.073 166.187 262.975 156.611 252.38H128.593" stroke="#30242A" stroke-width="4" stroke-linecap="round" stroke-linejoin="round"/>
<path d="M190.84 327.964L190.892 328.088L232.252 308.719C229.033 299.087 225.667 286.271 220.139 269.497C214.958 253.8 211.531 242.072 208.285 232.995C203.746 236.265 198.149 237.72 192.593 237.074C187.036 236.429 181.922 233.729 178.253 229.506C174.585 225.284 172.627 219.842 172.765 214.25C172.902 208.657 175.125 203.319 178.997 199.282C156.918 189.306 78.5004 182.799 78.5004 182.799L34.1396 176.246C31.7991 180.115 29.8071 186.247 28.7252 193.409H44.2247V209.986C44.2164 213.337 42.8799 216.549 40.5079 218.917C38.136 221.285 34.922 222.616 31.5703 222.619H30.6861C30.478 222.619 30.27 222.619 30.0671 222.619C34.3009 238.223 45.1921 251.366 67.4219 251.366H157.142C166.717 261.95 164.705 274.048 168.101 297.656C170.878 316.968 184.043 331.204 184.043 331.204L190.84 327.964Z" fill="#4856DF"/>
<path d="M253.847 350.147L212.654 368.829C211.957 369.317 211.468 370.048 211.285 370.88C211.102 371.711 211.238 372.58 211.666 373.315C212.094 374.051 212.783 374.598 213.597 374.849C214.41 375.1 215.287 375.036 216.056 374.67L278.563 345.544C276.114 338.782 269.815 336.181 254.893 333.581L254.253 333.461C253.017 338.942 252.879 344.613 253.847 350.147Z" fill="#3EC1F3"/>
<path d="M254.253 333.44C249.957 332.619 246.586 331.188 243.804 329.025C238.676 325.03 235.534 318.529 232.252 308.74L190.892 328.109C194.398 336.166 199.318 344.639 204.005 352.035C208.098 358.474 212.004 364.086 214.631 367.846L213.138 368.569C212.968 368.652 212.806 368.749 212.654 368.86L253.847 350.178C252.872 344.627 253.01 338.938 254.253 333.44Z" fill="#A15842"/>
<path d="M195.189 237.234C199.892 237.237 204.476 235.754 208.285 232.995C201.83 214.854 196.234 207.297 179.309 199.422L178.997 199.281C175.955 202.454 173.912 206.451 173.122 210.775C172.333 215.099 172.832 219.559 174.557 223.602C176.282 227.645 179.158 231.092 182.826 233.514C186.494 235.935 190.793 237.226 195.189 237.224V237.234Z" fill="#3EC1F3"/>
<path d="M31.5703 222.619C34.9283 222.619 38.1489 221.286 40.5238 218.912C42.8988 216.538 44.2337 213.318 44.2351 209.96V193.383H28.7356C27.3677 202.376 27.4457 212.955 30.0671 222.604C30.27 222.604 30.478 222.604 30.6861 222.604L31.5703 222.619Z" fill="#3EC1F3"/>
<path d="M156.377 252.609H171.497" stroke="#30242A" stroke-width="4" stroke-linecap="round" stroke-linejoin="round"/>
<path d="M221.413 92.3194C221.413 92.3194 194.195 61.0708 162.036 49.7375" stroke="#30242A" stroke-width="4" stroke-linecap="round" stroke-linejoin="round"/>
<path d="M136.041 61.9447C135.053 59.5573 138.35 55.8125 143.843 52.6502C136.405 50.7985 131.121 47.3502 131.651 44.4531C132.182 41.5561 138.34 40.1934 145.954 41.088C141.949 36.1989 140.186 31.5282 141.955 29.6454C144.207 27.2373 151.353 30.2747 157.912 36.4069C163.633 41.7641 167.014 47.7247 166.296 50.7569C165.896 53.8464 160.627 58.2258 153.387 61.2217C145.06 64.6753 137.305 64.9977 136.041 61.9447Z" fill="#3546AB"/>
<path d="M166.567 60.4623C171.812 60.4623 176.064 56.2102 176.064 50.965C176.064 45.7197 171.812 41.4677 166.567 41.4677C161.321 41.4677 157.069 45.7197 157.069 50.965C157.069 56.2102 161.321 60.4623 166.567 60.4623Z" fill="#30242A"/>
<path d="M186.577 63.1967C189.187 62.2278 188 52.5509 183.928 41.5828C179.856 30.6147 174.439 22.5087 171.829 23.4775C169.22 24.4464 170.406 34.1233 174.478 45.0914C178.551 56.0596 183.968 64.1656 186.577 63.1967Z" fill="#30242A"/>
<path d="M186.113 65.1017C186.113 65.1017 190.149 76.1906 188.131 87.784" stroke="#30242A" stroke-width="4" stroke-linecap="round" stroke-linejoin="round"/>
<path d="M112.511 20.9334C103.908 30.6128 94.7644 32.7505 94.7644 32.7505C88.8507 26.301 78.1207 26.3011 76.4823 35.4395C74.6983 45.5662 87.2227 48.354 87.2227 48.354C87.2227 48.354 90.3798 61.4193 85.5375 67.874C81.2622 73.5953 75.7697 74.5367 64.5144 75.7954C79.1817 100.579 94.1611 98.6233 99.149 98.6233C111.112 98.6233 114.482 84.7414 115.423 77.5846C112.7 76.6348 109.92 75.8514 107.102 75.2388L105.489 65.5647C105.489 65.5647 113.015 68.2485 119.47 64.488C125.925 60.7276 127.537 53.732 125.384 42.9812C124.109 36.6098 124.156 28.73 123.064 21.6876C118.804 22.4106 112.511 20.9334 112.511 20.9334Z" fill="#A15842"/>
<path d="M201.992 74.932C199.708 65.7935 181.832 60.8368 181.832 60.8368C181.832 60.8368 182.903 40.3234 178.3 39.6681C174.774 39.1479 171.242 47.7351 168.221 64.3684C164.84 82.9574 166.707 117.29 166.707 117.29C166.707 117.29 162.967 113.894 157.662 109.166C157.132 110.238 156.319 111.144 155.31 111.786C154.301 112.427 153.136 112.781 151.941 112.807C152.695 113.763 153.168 114.911 153.305 116.121C153.443 117.331 153.24 118.555 152.72 119.656C152.199 120.757 151.382 121.691 150.359 122.353C149.337 123.015 148.15 123.378 146.932 123.402C147.687 124.358 148.159 125.505 148.297 126.716C148.434 127.926 148.231 129.15 147.711 130.251C147.19 131.352 146.373 132.286 145.35 132.948C144.328 133.609 143.141 133.973 141.923 133.996C142.715 135 143.195 136.214 143.305 137.487C143.414 138.761 143.148 140.039 142.54 141.163C141.931 142.287 141.007 143.209 139.88 143.813C138.754 144.418 137.475 144.679 136.202 144.565C147.244 151.753 162.255 160.138 172.257 160.138C224.674 160.117 203.505 80.9809 201.992 74.932Z" fill="#A15842"/>
<path d="M142.683 140.826C143.203 139.724 143.406 138.5 143.269 137.29C143.132 136.081 142.661 134.933 141.908 133.976C143.126 133.952 144.312 133.589 145.335 132.927C146.357 132.265 147.175 131.331 147.695 130.23C148.216 129.129 148.419 127.905 148.281 126.695C148.144 125.485 147.671 124.337 146.917 123.381C148.134 123.357 149.321 122.994 150.344 122.332C151.366 121.67 152.183 120.737 152.704 119.636C153.225 118.534 153.427 117.31 153.29 116.1C153.152 114.89 152.68 113.742 151.925 112.786C153.121 112.76 154.286 112.407 155.294 111.765C156.303 111.123 157.117 110.217 157.647 109.145C148.503 101 134.715 88.9231 127.376 83.4983C123.823 80.8717 119.298 78.9265 115.413 77.5846C114.498 84.7622 111.148 98.6233 99.1854 98.6233C94.2183 98.6233 79.2182 100.579 64.5509 75.7953L59.8386 76.3155C43.611 78.1203 36.2253 86.853 31.8771 97.2866C29.1881 103.741 27.0348 115.569 27.0348 115.569C25.3666 126.412 24.5077 137.365 24.4655 148.336L45.5666 167.866L102.218 169.266C106.753 162.577 115.075 150.224 117.821 145.486C121.348 139.437 121.852 134.397 121.852 134.397C121.852 134.397 127.906 139.13 136.202 144.534C137.532 144.651 138.865 144.358 140.023 143.695C141.182 143.032 142.11 142.031 142.683 140.826Z" fill="#FFBE21"/>
<path d="M118.43 9.10078C111.98 1.03897 94.2339 -4.33904 80.2532 5.87605C66.2724 16.0911 67.3491 32.7609 67.8848 39.2155C67.8848 39.2155 52.8326 34.3733 42.0766 45.665C38.9637 48.8932 36.6967 52.8406 35.4772 57.1561C34.2576 61.4717 34.1234 66.0218 35.0863 70.4018C35.0863 70.4018 15.2802 69.8452 11.4261 88.1481C9.23644 98.5505 13.3246 105.473 17.86 109.759C20.52 112.255 23.6276 114.226 27.0192 115.569C27.0192 115.569 29.1725 103.741 31.8615 97.2866C36.2097 86.8531 43.5954 78.1203 59.823 76.3155L64.5353 75.7954C75.7906 74.5367 81.283 73.5797 85.5584 67.874C90.3955 61.4193 87.2228 48.354 87.2228 48.354C87.2228 48.354 74.6827 45.5662 76.4667 35.4499C78.0843 26.3115 88.8351 26.3114 94.7488 32.7609C94.7488 32.7609 103.893 30.6128 112.495 20.9334C112.495 20.9334 118.789 22.4106 123.08 21.6876C122.346 16.8401 121.056 12.3931 118.43 9.10078Z" fill="#30242A"/>
<path d="M203.11 82.1148C201.586 81.4126 200.676 79.6442 200.936 76.2635C200.936 76.2635 197.784 80.2164 194.429 78.4584C191.074 76.7004 192.416 72.9139 192.416 72.9139C192.416 72.9139 189.389 74.932 186.872 72.3938C184.589 70.1105 186.352 66.3448 186.352 66.3448C186.352 66.3448 183.002 67.7127 181.816 65.3358C180.324 62.3607 182.139 59.2452 184.105 56.8579" stroke="#30242A" stroke-width="8" stroke-linecap="round" stroke-linejoin="round"/>
<path d="M34.1292 70.8387C34.6991 73.5334 35.7264 76.1106 37.1667 78.4584" stroke="black" stroke-width="4" stroke-miterlimit="10" stroke-linecap="round"/>
<path d="M165.698 117.94L166.962 133.653" stroke="#30242A" stroke-width="4" stroke-linecap="round" stroke-linejoin="round"/>
<path d="M120.084 117.009C123.376 122.939 123.334 130.054 122.908 134.272" stroke="#30242A" stroke-width="4" stroke-linecap="round" stroke-linejoin="round"/>
<path d="M90.3434 133.653L74.2146 134.158" stroke="#30242A" stroke-width="4" stroke-linecap="round" stroke-linejoin="round"/>
<path d="M105.214 66.5581C102.96 65.6732 100.761 64.6537 98.6289 63.505" stroke="#30242A" stroke-width="4" stroke-linecap="round" stroke-linejoin="round"/>
<path d="M109.244 81.4854L108.365 75.915" stroke="#30242A" stroke-width="4" stroke-linecap="round" stroke-linejoin="round"/>
<path d="M66.7977 39.4184L67.916 48.7181" stroke="black" stroke-width="4" stroke-miterlimit="10" stroke-linecap="round"/>
<path d="M120.084 50.4865C118.945 51.225 115.169 51.4695 113.359 48.1772" stroke="#30242A" stroke-width="4" stroke-linecap="round" stroke-linejoin="round"/>
<path d="M89.8389 39.8969L84.799 37.3795" stroke="#30242A" stroke-width="4" stroke-linecap="round" stroke-linejoin="round"/>
<path d="M113.109 37.6656C112.303 38.763 108.501 40.8903 105.64 38.4614" stroke="#30242A" stroke-width="4" stroke-linecap="round" stroke-linejoin="round"/>
<path d="M125.358 36.0792C124.756 36.2072 124.134 36.2152 123.529 36.1027C122.924 35.9902 122.347 35.7596 121.831 35.4239" stroke="#30242A" stroke-width="4" stroke-linecap="round" stroke-linejoin="round"/>
<path d="M118.539 37.9517C119.116 39.2572 119.673 40.6979 119.553 41.2492C119.376 41.9197 118.976 42.5102 118.419 42.924" stroke="#30242A" stroke-width="4" stroke-linecap="round" stroke-linejoin="round"/>
<path d="M87.0771 45.9875L80.1959 52.4785C79.8234 52.8298 79.5471 53.2707 79.3934 53.7592C79.2398 54.2476 79.2139 54.7673 79.3182 55.2686C79.4226 55.7699 79.6536 56.2361 79.9894 56.6227C80.3252 57.0093 80.7544 57.3034 81.2362 57.4769L89.3708 60.3635C89.8543 60.5345 90.3735 60.5785 90.8789 60.4913C91.3842 60.4041 91.8588 60.1886 92.257 59.8656C92.6553 59.5425 92.9639 59.1226 93.1534 58.646C93.3429 58.1695 93.4069 57.6523 93.3393 57.144L92.0858 47.7819C92.0125 47.2377 91.791 46.7241 91.4456 46.2972C91.1002 45.8704 90.6441 45.5466 90.1271 45.3614C89.6102 45.1762 89.0523 45.1367 88.5144 45.2471C87.9765 45.3575 87.4793 45.6136 87.0771 45.9875Z" fill="#F4E6D8"/>
<path d="M185.863 47.7142C185.863 47.7142 189.389 45.6962 192.416 46.7052C197.097 48.2655 196.411 52.6241 196.411 52.6241C196.411 52.6241 202.975 50.2576 204.249 57.196C204.249 57.196 210.168 58.5223 208.836 64.4412C208.836 64.4412 213.627 64.696 212.675 70.9738C211.723 77.2517 207.536 82.4684 205.019 82.4684C202.418 82.4684 200.582 80.8717 200.936 76.227C200.936 76.227 197.784 80.1799 194.429 78.4219C191.074 76.6639 192.416 72.8775 192.416 72.8775C192.416 72.8775 189.389 74.8955 186.872 72.3574C184.589 70.074 186.352 66.3084 186.352 66.3084C186.352 66.3084 183.002 67.6763 181.816 65.2994C179.294 60.2594 186.232 54.8398 187.361 53.2067L185.863 47.7142Z" fill="#A15842"/>
<path d="M184.365 68.1444C187.829 64.9665 193.727 58.9696 196.525 52.6761" stroke="#30242A" stroke-width="4" stroke-linecap="round" stroke-linejoin="round"/>
<path d="M190.726 75.4001C196.482 70.5046 201.181 64.4876 204.535 57.7161" stroke="#30242A" stroke-width="4" stroke-linecap="round" stroke-linejoin="round"/>
<path d="M199.636 79.1345C201.196 77.2309 206.652 70.3913 209.357 64.9769" stroke="#30242A" stroke-width="4" stroke-linecap="round" stroke-linejoin="round"/>
<path d="M198.658 194.897H111.361L131.204 132.207C131.79 130.362 132.95 128.751 134.513 127.608C136.077 126.465 137.964 125.85 139.9 125.851H213.668C215.102 125.851 216.515 126.188 217.793 126.836C219.072 127.484 220.18 128.424 221.027 129.58C221.874 130.736 222.437 132.076 222.669 133.49C222.901 134.905 222.797 136.354 222.365 137.72L205.955 189.561C205.462 191.109 204.489 192.46 203.177 193.42C201.866 194.379 200.283 194.896 198.658 194.897Z" fill="#30242A"/>
<path d="M60.6968 187.839C60.4392 188.651 60.3767 189.512 60.5144 190.353C60.6521 191.194 60.986 191.99 61.4891 192.678C61.9922 193.365 62.6503 193.925 63.41 194.31C64.1697 194.696 65.0096 194.897 65.8615 194.897H198.658C200.282 194.893 201.862 194.373 203.171 193.412C204.48 192.451 205.45 191.098 205.939 189.55L206.46 187.839H60.6968Z" fill="#30242A"/>
<path d="M185.286 154.978C183.257 152.201 174.035 159.534 173.359 160.143C173.006 159.534 168.21 152.201 164.689 154.978C161.636 157.386 168.33 168.137 170.135 170.878C170.209 170.961 170.301 171.028 170.403 171.074C170.505 171.119 170.616 171.143 170.727 171.143C170.839 171.143 170.95 171.119 171.052 171.074C171.154 171.028 171.246 170.961 171.32 170.878C174.602 168.111 187.049 157.36 185.286 154.978Z" fill="#FFBE21"/>
<path d="M176.859 153.015C177.592 150.662 177.562 148.56 176.791 148.32C176.02 148.08 174.802 149.793 174.069 152.146C173.336 154.499 173.366 156.601 174.137 156.841C174.908 157.081 176.127 155.368 176.859 153.015Z" fill="#FFBE21"/>
<path d="M10.6772 138.059C11.8102 138.495 13.0423 138.609 14.2361 138.387C15.43 138.164 16.5386 137.615 17.4387 136.8C17.5454 138.014 17.9896 139.175 18.7212 140.15C19.4527 141.126 20.4424 141.877 21.5785 142.32C22.7145 142.762 23.9517 142.878 25.1503 142.655C26.3488 142.431 27.461 141.877 28.3611 141.054C28.4706 142.268 28.9165 143.426 29.6487 144.399C30.3809 145.373 31.3702 146.123 32.5054 146.564C33.6405 147.006 34.8764 147.122 36.074 146.899C37.2715 146.676 38.3831 146.124 39.2836 145.304C39.3669 146.261 39.6606 147.189 40.1437 148.02C40.6267 148.851 41.2872 149.565 42.0781 150.112C42.869 150.658 43.7707 151.024 44.719 151.181C45.6672 151.339 46.6386 151.286 47.5639 151.025L55.428 129.903C58.4569 121.795 59.8927 113.179 59.6566 104.527L58.8608 76.4403C58.8608 76.4403 40.7139 77.9486 30.1295 91.0556C24.6995 97.7807 14.0423 115.548 7.2132 134.865C7.93084 136.323 9.16574 137.462 10.6772 138.059Z" fill="#FFBE21"/>
<path d="M43.4393 150.817C42.3002 150.378 41.3067 149.629 40.5713 148.655C39.8359 147.68 39.3881 146.52 39.2784 145.304C38.3778 146.124 37.2663 146.676 36.0687 146.899C34.8712 147.122 33.6353 147.006 32.5001 146.564C31.365 146.123 30.3756 145.373 29.6435 144.399C28.9113 143.426 28.4654 142.268 28.3559 141.054C27.4558 141.877 26.3436 142.431 25.145 142.655C23.9465 142.878 22.7093 142.762 21.5732 142.32C20.4372 141.877 19.4475 141.126 18.7159 140.15C17.9844 139.175 17.5402 138.014 17.4335 136.8C16.6847 137.482 15.788 137.981 14.8137 138.257C13.8395 138.533 12.8144 138.58 11.8192 138.393C10.8239 138.206 9.88567 137.79 9.07828 137.179C8.27089 136.568 7.61639 135.777 7.16634 134.87C1.24741 151.613 -1.80048 169.526 3.93121 182.419C16.2684 210.188 53.2955 200.415 62.0335 197.846C70.7714 195.277 87.748 186.533 99.0606 188.078C110.373 189.623 123.225 195.277 125.285 188.078C125.285 188.078 132.208 187.901 130.028 181.317C130.028 181.317 133.508 180.885 134.023 178.316C135.063 173.172 122.71 168.548 122.71 168.548C122.71 168.548 132.483 170.108 134.538 168.028C137.138 165.427 134.611 161.23 118.648 157.36C101.115 153.116 77.9751 155.685 43.5225 161.854L47.5534 151.02C46.1964 151.401 44.7522 151.33 43.4393 150.817Z" fill="#A15842"/>
<path d="M55.5632 127.1L44.053 160.699" stroke="#30242A" stroke-width="4" stroke-linecap="round" stroke-linejoin="round"/>
<path d="M125.815 168.917C120.229 166.795 110.93 163.539 103.71 162.364" stroke="#30242A" stroke-width="4" stroke-linecap="round" stroke-linejoin="round"/>
<path d="M130.174 181.046C122.996 177.816 109.286 171.955 101.911 170.852" stroke="#30242A" stroke-width="4" stroke-linecap="round" stroke-linejoin="round"/>
<path d="M43.6057 160.772C39.736 161.396 33.6611 162.431 27.5913 163.643" stroke="#30242A" stroke-width="4" stroke-linecap="round" stroke-linejoin="round"/>
<path d="M125.072 188.786C119.688 186.045 108.345 180.594 100.371 179.075" stroke="#30242A" stroke-width="4" stroke-linecap="round" stroke-linejoin="round"/>
</svg>
