<svg width="49" height="124" viewBox="0 0 49 124" fill="none" xmlns="http://www.w3.org/2000/svg">
<path d="M46.2888 121.556C45.9767 114.144 44.0055 84.6901 32.3029 67.4119" stroke="#30242A" stroke-width="4" stroke-miterlimit="10" stroke-linecap="round"/>
<path d="M43.8497 98.9074C45.3458 96.3715 37.4152 88.9212 26.136 82.2667C14.8569 75.6122 4.50054 72.2734 3.0044 74.8093C1.50827 77.3451 9.43893 84.7954 20.718 91.4499C31.9972 98.1045 42.3536 101.443 43.8497 98.9074Z" fill="#30242A"/>
<path d="M39.4698 25.4026C41.6657 24.1506 40.5371 18.0338 36.9488 11.7403C33.3605 5.4469 28.6715 1.36004 26.4755 2.61209C24.2796 3.86414 25.4082 9.98096 28.9965 16.2744C32.5848 22.5678 37.2738 26.6547 39.4698 25.4026Z" fill="#30242A"/>
<path d="M0.840981 52.084C2.02165 49.4574 7.57649 49.265 14.3276 51.2778C10.1667 43.8349 8.8924 36.9122 11.6438 35.1282C14.3952 33.3442 20.2102 37.2919 25.3125 44.1418C26.2123 37.1566 28.6465 32.1791 31.5539 32.1479C35.2259 32.1479 38.2322 40.2461 38.2686 50.2636C38.2907 53.1282 38.0364 55.9882 37.5092 58.8039C35.9081 58.0706 34.1491 57.749 32.3921 57.8684C30.6351 57.9877 28.9358 58.5442 27.4485 59.4873C25.9613 60.4304 24.7333 61.7302 23.8761 63.2686C23.0189 64.8069 22.5597 66.5351 22.5403 68.296C19.8474 67.6357 17.2217 66.7268 14.6969 65.581C5.52724 61.4773 -0.662157 55.4388 0.840981 52.084Z" fill="#3546AB"/>
<path d="M27.3305 59.5581C28.8228 58.588 30.5362 58.0111 32.3113 57.8811C34.0864 57.751 35.8655 58.0721 37.4832 58.8143C36.5886 63.4694 34.9711 66.9229 33.0258 68.0464C31.1742 69.3935 27.2525 69.4455 22.5143 68.3064C22.5338 66.5642 22.9836 64.8538 23.8239 63.3275C24.6642 61.8012 25.8688 60.5063 27.3305 59.5581Z" fill="#30242A"/>
</svg>
