<svg width="65" height="110" viewBox="0 0 65 110" fill="none" xmlns="http://www.w3.org/2000/svg">
<path d="M2.1897 107.109C3.62522 98.9221 11.0993 58.7847 23.062 36.0764" stroke="#30242A" stroke-width="4" stroke-miterlimit="10" stroke-linecap="round"/>
<path d="M63.4394 91.7013C64.2999 89.0451 52.8089 82.9433 37.7735 78.0725C22.7381 73.2018 9.85202 71.4065 8.99154 74.0627C8.13105 76.7188 19.622 82.8207 34.6574 87.6915C49.6928 92.5623 62.5789 94.3575 63.4394 91.7013Z" fill="#30242A"/>
<path d="M20.8099 0.890458C23.6809 0.630399 26.5727 5.37906 28.1279 12.2498C32.5593 4.96817 37.9789 0.46397 40.8863 1.98791C43.7938 3.51185 43.2009 10.5126 39.7317 18.3196C46.2644 15.6826 51.814 15.3497 53.2547 17.8567C55.0647 21.0502 49.4735 27.6505 40.7719 32.5916C38.2903 34.0141 35.6777 35.195 32.9702 36.118C32.8219 34.3651 32.2386 32.6768 31.2731 31.2062C30.3077 29.7357 28.9906 28.5292 27.4412 27.6961C25.8918 26.863 24.159 26.4297 22.3999 26.4353C20.6407 26.441 18.9107 26.8855 17.3667 27.7285C16.6238 25.0559 16.1275 22.3207 15.8843 19.5575C14.9221 9.58162 17.1534 1.22333 20.8099 0.890458Z" fill="#3546AB"/>
<path d="M27.2957 27.6349C28.873 28.4601 30.2164 29.6703 31.2011 31.1533C32.1858 32.6363 32.78 34.344 32.9285 36.118C28.4295 37.6211 24.6067 37.9072 22.6926 36.7629C20.6122 35.8111 18.6409 32.4148 17.3094 27.7285C18.837 26.89 20.5483 26.4427 22.2907 26.4264C24.0332 26.41 25.7527 26.8252 27.2957 27.6349Z" fill="#30242A"/>
<path d="M51.8193 48.5071V48.5487C49.3731 49.5574 47.3937 51.4461 46.2715 53.8423C45.1493 56.2385 44.9657 58.9682 45.7571 61.4931C46.5484 64.018 48.2572 66.1546 50.5463 67.4816C52.8355 68.8087 55.5388 69.2297 58.1231 68.6617V68.7033C44.418 72.9942 31.8936 71.954 30.146 66.3731C28.3984 60.7923 38.1142 52.7981 51.8193 48.5071Z" fill="#3546AB"/>
<path d="M48.5581 65.9987C49.7601 65.5171 50.7357 64.5991 51.2895 63.4286C51.8432 62.2581 51.9341 60.9215 51.544 59.6868C51.154 58.4521 50.3116 57.4104 49.1859 56.7705C48.0602 56.1305 46.7343 55.9397 45.4738 56.2361C45.8193 54.5309 46.5802 52.9373 47.6888 51.5964C48.7975 50.2555 50.2198 49.2087 51.8296 48.5488L58.1334 68.6617C56.4413 69.0356 54.6833 68.9883 53.0137 68.524C51.3442 68.0597 49.8142 67.1925 48.5581 65.9987Z" fill="#FFB494"/>
<path d="M51.5228 59.7053C51.9089 60.9349 51.8183 62.2648 51.2691 63.4307C50.7198 64.5967 49.7521 65.5133 48.5582 65.9987C47.2599 64.7654 46.2958 63.2228 45.7564 61.5153C45.2169 59.8079 45.1197 57.9914 45.4738 56.2361C46.7336 55.9478 48.0558 56.1447 49.1768 56.7877C50.2979 57.4306 51.1355 58.4723 51.5228 59.7053Z" fill="#30242A"/>
</svg>
