<svg width="206" height="253" viewBox="0 0 206 253" fill="none" xmlns="http://www.w3.org/2000/svg">
<path d="M136.764 68.3459C136.768 68.9024 136.654 69.4534 136.431 69.9635C134.871 73.5159 128.203 74.0412 121.572 71.1337C116.017 68.7048 112.241 64.6375 112.08 61.2931V105.649H136.78V68.3459H136.764Z" fill="#FFBE21"/>
<path d="M127.267 58.2817C120.635 55.3742 113.978 55.8995 112.407 59.4519C112.154 60.035 112.042 60.6692 112.08 61.3035C112.241 64.6479 116.017 68.7152 121.572 71.1441C128.203 74.0516 134.861 73.5263 136.431 69.9739C136.654 69.4639 136.768 68.9128 136.764 68.3563C136.78 64.9704 132.957 60.7678 127.267 58.2817Z" fill="#A15842"/>
<path d="M155.702 82.9768C155.541 86.3212 151.764 90.3885 146.21 92.8226C139.573 95.7249 132.921 95.2047 131.345 91.6471C131.124 91.1382 131.011 90.5894 131.012 90.0348V105.638H155.707V82.9768H155.702Z" fill="#FFBE21"/>
<path d="M155.374 81.1252C153.814 77.5728 147.146 77.0475 140.509 79.9549C134.824 82.4463 131.001 86.6436 131.012 90.0348C131.011 90.5894 131.124 91.1382 131.345 91.6471C132.905 95.2047 139.573 95.7248 146.21 92.8226C151.765 90.3884 155.541 86.3211 155.702 82.9768C155.739 82.3424 155.627 81.7082 155.374 81.1252Z" fill="#A15842"/>
<path d="M131.735 105.659V90.5393" stroke="#A15842" stroke-width="4" stroke-miterlimit="10" stroke-linecap="round"/>
<path d="M124.427 54.9997V63.5712" stroke="#30242A" stroke-width="4" stroke-linecap="round" stroke-linejoin="round"/>
<path d="M143.359 76.6782V85.749" stroke="#30242A" stroke-width="4" stroke-linecap="round" stroke-linejoin="round"/>
<path d="M18.6718 252.987C18.0412 252.988 17.4196 252.839 16.858 252.552C16.2964 252.266 15.8108 251.85 15.4412 251.339C15.0715 250.828 14.8284 250.237 14.7318 249.614C14.6351 248.991 14.6877 248.354 14.8853 247.755L27.3681 209.714C27.6317 208.916 28.1399 208.222 28.8206 207.73C29.5013 207.238 30.3198 206.973 31.1598 206.973H39.9081C40.6031 206.972 41.2862 207.154 41.8894 207.499C42.4927 207.844 42.9951 208.341 43.3469 208.94C43.6987 209.54 43.8875 210.221 43.8947 210.916C43.9018 211.611 43.7271 212.295 43.3877 212.902L22.1357 250.943C21.792 251.561 21.2899 252.076 20.681 252.435C20.0722 252.795 19.3787 252.985 18.6718 252.987Z" fill="#30242A"/>
<path d="M185.9 252.987C186.53 252.988 187.152 252.839 187.713 252.552C188.275 252.266 188.761 251.85 189.13 251.339C189.5 250.828 189.743 250.237 189.84 249.614C189.936 248.991 189.884 248.354 189.686 247.755L177.203 209.714C176.94 208.917 176.433 208.223 175.753 207.731C175.073 207.239 174.256 206.974 173.417 206.973H164.663C163.969 206.974 163.287 207.156 162.685 207.502C162.082 207.847 161.58 208.344 161.229 208.943C160.878 209.542 160.688 210.222 160.681 210.916C160.673 211.611 160.846 212.295 161.184 212.902L182.436 250.943C182.78 251.56 183.283 252.075 183.891 252.434C184.5 252.793 185.193 252.984 185.9 252.987Z" fill="#30242A"/>
<path d="M205.201 105.659H0.0516357V223.101H205.201V105.659Z" fill="#A15842"/>
<path d="M190.076 120.779H15.1714V207.982H190.076V120.779Z" fill="#FFB494"/>
<path d="M102.437 119.271V209.495" stroke="#A15842" stroke-width="4" stroke-miterlimit="10"/>
<path d="M123.049 169.665C125.967 169.665 128.333 167.299 128.333 164.38C128.333 161.462 125.967 159.096 123.049 159.096C120.13 159.096 117.764 161.462 117.764 164.38C117.764 167.299 120.13 169.665 123.049 169.665Z" fill="#30242A"/>
<path d="M82.1988 169.665C85.1173 169.665 87.4832 167.299 87.4832 164.38C87.4832 161.462 85.1173 159.096 82.1988 159.096C79.2803 159.096 76.9144 161.462 76.9144 164.38C76.9144 167.299 79.2803 169.665 82.1988 169.665Z" fill="#30242A"/>
<path d="M79.0053 0.41864C79.0053 0.41864 74.9172 9.6143 64.1924 9.6143C53.4676 9.6143 49.3587 0.41864 49.3587 0.41864C49.3587 0.41864 19.1919 69.3861 48.8386 105.659H79.4891C109.12 69.3861 79.0053 0.41864 79.0053 0.41864Z" fill="#3EC1F3"/>
<path d="M64.1664 9.6143C74.8912 9.6143 78.9793 0.41864 78.9793 0.41864H49.3326C49.3326 0.41864 53.4363 9.6143 64.1664 9.6143Z" fill="#30242A"/>
<path d="M91.8731 61.8184C75.1981 62.1149 55.4649 68.1378 40.2775 89.3846" stroke="#F5EBDD" stroke-width="4" stroke-linecap="round" stroke-linejoin="round"/>
<path d="M37.6093 44.9406C48.8022 42.21 69.997 39.6095 90.5416 44.4986" stroke="#F5EBDD" stroke-width="4" stroke-linecap="round" stroke-linejoin="round"/>
<path d="M90.4479 79.5232C82.9894 79.6116 69.2011 88.0635 70.7198 105.097" stroke="#F5EBDD" stroke-width="4" stroke-linecap="round" stroke-linejoin="round"/>
</svg>
