<svg width="223" height="279" viewBox="0 0 223 279" fill="none" xmlns="http://www.w3.org/2000/svg">
<path d="M108.338 15.0418H114.335C136.997 15.0473 158.729 24.0535 174.751 40.0799C190.774 56.1062 199.775 77.8403 199.775 100.502V263.538H22.8519V100.502C22.8519 89.2771 25.0632 78.1621 29.3596 67.7919C33.6561 57.4216 39.9533 47.9994 47.8918 40.0633C55.8303 32.1273 65.2545 25.8328 75.626 21.5396C85.9975 17.2463 97.1133 15.0383 108.338 15.0418Z" fill="#FFB494"/>
<path d="M143.436 165.397V266.076H64.9293V165.397H143.436ZM145.516 163.317H62.8488V268.157H145.516V163.317Z" fill="#CA7358"/>
<path d="M145.516 163.311H62.8488V184.985H145.516V163.311Z" fill="#CA7358"/>
<path d="M62.4067 110.957V266.581H15.1541V110.957H62.4067ZM64.4872 108.876H13.0737V268.661H64.4872V108.876Z" fill="#CA7358"/>
<path d="M208.331 79.4531V266.076H145.958V79.4531H208.331ZM210.411 77.3726H143.878V268.157H210.411V77.3726Z" fill="#CA7358"/>
<path d="M170.924 102.827H171.522C173.782 102.827 175.949 103.725 177.546 105.322C179.144 106.92 180.042 109.087 180.042 111.347V130.549H162.399V111.347C162.399 110.227 162.62 109.119 163.048 108.085C163.477 107.051 164.105 106.112 164.896 105.321C165.688 104.529 166.628 103.902 167.662 103.474C168.696 103.046 169.805 102.826 170.924 102.827Z" fill="#CA7358"/>
<path d="M160.386 117.947H182.06" stroke="#FFB494" stroke-width="4" stroke-linecap="round" stroke-linejoin="round"/>
<path d="M170.924 152.561H171.522C173.782 152.561 175.949 153.458 177.546 155.056C179.144 156.654 180.042 158.821 180.042 161.08V180.283H162.399V161.08C162.399 159.961 162.62 158.853 163.048 157.819C163.477 156.785 164.105 155.845 164.896 155.054C165.688 154.263 166.628 153.636 167.662 153.208C168.696 152.78 169.805 152.56 170.924 152.561Z" fill="#F5EBDD"/>
<path d="M160.386 167.68H182.06" stroke="#FFB494" stroke-width="4" stroke-linecap="round" stroke-linejoin="round"/>
<path d="M170.924 202.294H171.522C173.782 202.294 175.949 203.192 177.546 204.79C179.144 206.387 180.042 208.554 180.042 210.814V230.016H162.399V210.814C162.399 208.554 163.297 206.387 164.894 204.79C166.492 203.192 168.659 202.294 170.919 202.294H170.924Z" fill="#F5EBDD"/>
<path d="M160.386 217.414H182.06" stroke="#FFB494" stroke-width="4" stroke-linecap="round" stroke-linejoin="round"/>
<path d="M170.924 252.028H171.522C173.782 252.028 175.949 252.925 177.546 254.523C179.144 256.121 180.042 258.288 180.042 260.547V278.19H162.399V260.547C162.399 259.428 162.62 258.32 163.048 257.286C163.477 256.252 164.105 255.312 164.896 254.521C165.688 253.73 166.628 253.103 167.662 252.675C168.696 252.247 169.805 252.027 170.924 252.028Z" fill="#30242A"/>
<path d="M210.411 77.3726H143.878V85.6893H210.411V77.3726Z" fill="#CA7358"/>
<path d="M64.4872 104.845H13.0737V113.162H64.4872V104.845Z" fill="#CA7358"/>
<path d="M95.3613 204.645H77.719V227.327H95.3613V204.645Z" fill="#F5EBDD"/>
<path d="M75.7009 214.725H97.3794" stroke="#FFB494" stroke-width="4" stroke-linecap="round" stroke-linejoin="round"/>
<path d="M86.5402 228.336V214.725" stroke="#FFB494" stroke-width="4" stroke-linecap="round" stroke-linejoin="round"/>
<path d="M95.3613 245.61H77.719V268.292H95.3613V245.61Z" fill="#CA7358"/>
<path d="M75.7009 255.689H97.3794" stroke="#FFB494" stroke-width="4" stroke-linecap="round" stroke-linejoin="round"/>
<path d="M86.5402 269.301V255.689" stroke="#FFB494" stroke-width="4" stroke-linecap="round" stroke-linejoin="round"/>
<path d="M128.628 204.645H110.986V227.327H128.628V204.645Z" fill="#30242A"/>
<path d="M108.973 214.725H130.646" stroke="#FFB494" stroke-width="4" stroke-linecap="round" stroke-linejoin="round"/>
<path d="M119.807 228.336V214.725" stroke="#FFB494" stroke-width="4" stroke-linecap="round" stroke-linejoin="round"/>
<path d="M128.628 245.61H110.986V268.292H128.628V245.61Z" fill="#F5EBDD"/>
<path d="M108.973 255.689H130.646" stroke="#FFB494" stroke-width="4" stroke-linecap="round" stroke-linejoin="round"/>
<path d="M119.807 269.301V255.689" stroke="#FFB494" stroke-width="4" stroke-linecap="round" stroke-linejoin="round"/>
<path d="M222.457 263.621H0.169556V278.741H222.457V263.621Z" fill="#F5EBDD"/>
<path d="M114.824 0H107.818C52.5505 0 7.74762 44.8029 7.74762 100.07V278.741H214.915V100.07C214.9 44.8029 170.092 0 114.824 0ZM103.756 263.621H22.8518V137.607H103.756V263.621ZM103.756 122.488H22.8518V100.585C22.8526 78.7087 31.2424 57.6652 46.2934 41.7888C61.3444 25.9125 81.9105 16.4122 103.756 15.2446V122.488ZM199.775 263.621H118.876V137.607H199.775V263.621ZM199.775 122.488H118.876V15.2446C140.721 16.4123 161.286 25.9127 176.337 41.7892C191.387 57.6657 199.775 78.7092 199.775 100.585V122.488Z" fill="#F5EBDD"/>
</svg>
